<?xml version="1.0" standalone="no"?>
<!DOCTYPE svg PUBLIC "-//W3C//DTD SVG 20010904//EN"
 "http://www.w3.org/TR/2001/REC-SVG-20010904/DTD/svg10.dtd">
<svg version="1.0" xmlns="http://www.w3.org/2000/svg"
 width="660.000000pt" height="660.000000pt" viewBox="0 0 660.000000 660.000000"
 preserveAspectRatio="xMidYMid meet">
<metadata>
Created by potrace 1.14, written by Peter Selinger 2001-2017
</metadata>
<g transform="translate(0.000000,660.000000) scale(0.100000,-0.100000)"
fill="#000000" stroke="none">
<path d="M3282 6563 c-14 -12 -30 -19 -40 -16 -9 4 -13 2 -9 -4 6 -10 -40 -38
-55 -35 -5 1 -8 -2 -8 -6 0 -8 -51 -36 -59 -32 -2 1 -7 -3 -10 -8 -3 -6 -13
-12 -20 -14 -8 -2 -23 -11 -33 -21 -10 -10 -23 -15 -28 -12 -6 4 -10 2 -10 -4
0 -10 -39 -27 -53 -23 -5 1 -6 -2 -2 -7 3 -6 -6 -13 -20 -17 -14 -3 -25 -10
-25 -14 0 -7 -33 -23 -51 -25 -3 0 -13 -8 -23 -18 -10 -9 -22 -15 -27 -12 -5
4 -9 2 -9 -3 0 -9 -50 -37 -62 -34 -5 1 -8 -2 -8 -8 0 -5 -7 -10 -15 -10 -8 0
-15 -3 -15 -8 0 -4 -15 -13 -32 -21 -18 -8 -35 -17 -38 -21 -3 -4 -18 -13 -35
-22 -65 -33 -100 -53 -103 -60 -2 -5 -8 -8 -14 -8 -5 0 -22 -9 -38 -20 -15
-11 -30 -17 -34 -13 -3 3 -6 1 -6 -5 0 -7 -6 -12 -13 -12 -8 0 -24 -9 -37 -20
-13 -11 -27 -21 -32 -21 -4 -1 -13 -2 -18 -3 -6 0 -14 -6 -18 -11 -11 -17 -99
-65 -106 -58 -3 3 -6 1 -6 -5 0 -7 -7 -12 -15 -12 -8 0 -15 -4 -15 -10 0 -5
-5 -10 -12 -10 -6 0 -19 -6 -27 -14 -9 -8 -23 -16 -31 -18 -8 -2 -17 -5 -20
-8 -20 -20 -114 -69 -122 -64 -7 4 -8 2 -4 -4 4 -7 -3 -14 -19 -18 -14 -3 -25
-10 -25 -16 0 -5 -4 -7 -9 -4 -5 4 -11 2 -13 -3 -1 -5 -10 -11 -18 -13 -8 -2
-19 -8 -25 -15 -5 -7 -16 -13 -24 -15 -8 -2 -23 -10 -33 -18 -10 -8 -21 -13
-25 -12 -3 2 -9 -1 -12 -6 -11 -17 -118 -71 -126 -64 -5 4 -5 1 -1 -5 6 -11 3
-14 -19 -13 -3 0 -15 -9 -27 -20 -12 -11 -26 -20 -31 -20 -5 0 -21 -9 -35 -19
-15 -10 -31 -20 -37 -21 -5 -2 -27 -14 -47 -26 -21 -13 -42 -24 -47 -24 -5 0
-14 -7 -21 -15 -7 -8 -16 -12 -21 -9 -5 3 -9 1 -9 -4 0 -8 -56 -39 -74 -40 -5
0 -12 -5 -15 -10 -6 -10 -50 -36 -126 -76 -22 -12 -42 -23 -45 -26 -3 -3 -16
-11 -29 -18 -13 -8 -39 -22 -57 -33 -19 -10 -34 -15 -34 -11 0 4 -4 2 -8 -4
-11 -17 -90 -64 -107 -64 -8 0 -15 -4 -15 -8 0 -11 -56 -43 -64 -35 -3 3 -6 1
-6 -5 0 -7 -7 -12 -15 -12 -8 0 -15 -4 -15 -10 0 -5 -5 -10 -11 -10 -6 0 -24
-9 -40 -21 -16 -11 -29 -17 -29 -14 0 4 -7 -1 -16 -9 -8 -9 -20 -13 -26 -10
-6 4 -8 2 -4 -4 4 -6 -8 -16 -29 -23 -19 -7 -35 -17 -35 -23 0 -5 -3 -7 -6 -3
-4 3 -13 -1 -21 -9 -8 -8 -19 -12 -24 -9 -10 7 -11 -20 -10 -220 1 -111 9
-2174 11 -2830 l1 -220 47 -35 c26 -19 58 -45 72 -56 114 -96 160 -134 164
-134 2 0 19 -13 38 -30 18 -16 87 -74 153 -128 66 -53 129 -105 140 -114 31
-25 147 -119 190 -153 21 -16 43 -35 49 -40 6 -6 36 -30 66 -55 30 -25 57 -48
58 -52 2 -5 8 -8 13 -8 5 0 17 -8 27 -17 23 -22 45 -40 147 -122 44 -35 85
-69 90 -76 6 -6 17 -16 26 -21 9 -5 36 -26 60 -46 24 -21 87 -72 139 -114 52
-42 97 -79 100 -83 3 -3 39 -33 80 -66 41 -32 77 -63 78 -67 2 -4 7 -8 12 -8
4 0 21 -11 36 -25 16 -13 78 -64 138 -113 l109 -90 824 0 c462 0 823 4 823 9
0 5 7 9 16 9 8 0 12 4 9 10 -3 5 -1 10 5 10 6 0 22 11 35 25 14 13 25 21 25
18 0 -4 6 0 13 9 6 8 36 34 65 57 30 22 50 41 45 41 -4 0 7 8 24 16 18 9 30
20 27 25 -3 5 0 9 6 9 6 0 22 11 36 25 13 13 26 24 29 22 2 -1 28 20 56 47 29
27 48 43 44 35 -9 -14 48 35 90 79 12 12 27 22 33 22 7 0 19 11 28 25 9 14 22
25 30 25 7 0 20 10 29 23 8 12 16 20 18 17 2 -5 42 27 89 72 15 15 28 24 28
20 0 -4 11 4 25 18 13 14 30 30 37 35 85 67 158 131 158 139 0 5 3 6 7 3 3 -4
17 5 30 19 12 14 23 21 23 17 0 -4 4 -3 8 2 6 9 85 77 145 125 10 8 28 23 39
32 12 10 25 18 30 18 5 0 7 4 4 9 -3 4 6 13 19 19 14 7 25 16 25 22 0 5 6 9
13 7 6 -1 11 4 10 11 -2 6 3 12 11 12 8 0 17 7 20 16 3 8 10 13 14 10 5 -3 15
4 22 15 8 10 18 19 22 19 8 0 55 40 104 88 13 12 26 22 28 22 6 0 45 32 72 58
7 6 18 12 24 12 6 0 8 5 5 10 -3 6 -1 10 5 10 9 0 28 15 101 83 10 9 19 14 19
10 0 -5 6 -1 13 8 7 8 35 33 64 56 29 22 49 43 46 47 -4 3 1 6 10 6 9 0 17 5
17 12 0 6 3 9 6 5 3 -3 19 7 34 23 15 16 31 26 35 22 3 -4 4 486 1 1088 -3
602 -6 1340 -7 1640 l-2 545 -106 62 c-58 35 -115 66 -126 69 -11 4 -22 10
-25 13 -4 6 -131 80 -283 165 -23 13 -118 68 -212 121 -93 54 -195 111 -225
128 -30 16 -59 33 -65 37 -5 4 -35 21 -65 38 -30 16 -98 54 -150 84 -52 30
-115 66 -140 80 -118 67 -477 270 -490 278 -20 12 -123 71 -184 105 -60 33
-145 82 -166 94 -31 19 -395 226 -410 234 -8 4 -37 21 -65 37 -27 17 -66 38
-85 48 -19 9 -37 19 -40 22 -3 3 -16 -5 -28 -17z"/>
</g>
</svg>
